<svg width="224" height="224" viewBox="0 0 224 224" fill="none" xmlns="http://www.w3.org/2000/svg">
<circle opacity="0.05" cx="112" cy="112" r="112" fill="#00B23E"/>
<circle opacity="0.05" cx="112" cy="112" r="86" fill="#00B23E"/>
<circle cx="112" cy="112" r="62" fill="white"/>
<path d="M112.5 95C111.455 95 110.608 95.8469 110.608 96.8918V110.608H96.8918C95.8469 110.608 95 111.455 95 112.5C95 113.545 95.8469 114.392 96.8918 114.392H110.608V128.108C110.608 129.153 111.455 130 112.5 130C113.545 130 114.392 129.153 114.392 128.108V114.392H128.108C129.153 114.392 130 113.545 130 112.5C130 111.455 129.153 110.608 128.108 110.608H114.392V96.8918C114.392 95.8469 113.545 95 112.5 95Z" fill="black"/>
</svg>
